Coordinates
version=1
nRows=11
nColumns=33
inDegrees=yes

Units are S.I. units (second, meters, Newtons, ...)
Angles are in degrees.

endheader
time	ground_thorax_rot_x	ground_thorax_rot_y	ground_thorax_rot_z	ground_thorax_tx	ground_thorax_ty	ground_thorax_tz	clav_prot_r	clav_elev_r	scapula_abduction_r	scapula_elevation_r	scapula_upward_rot_r	scapula_winging_r	shoulder_elv_r	plane_of_elev_r	axial_rot_r	elbow_flexion_r	pro_sup_r	wrist_flex_r	wrist_dev_r	clav_prot_l	clav_elev_l	scapula_abduction_l	scapula_elevation_l	scapula_upward_rot_l	scapula_winging_l	shoulder_elv_l	plane_of_elev_l	axial_rot_l	elbow_flexion_l	pro_sup_l	wrist_flex_l	wrist_dev_l	
3.5300	29.483805	25.992063	38.532882	0.294340	843.177795	-47.110700	-1.178822	40.133971	42.991898	45.000000	19.619185	1673.092255	-464.315722	141.892185	-180.000000	1785.235020	59.727914	24.202622	17.540945	-8.739300	-45.000000	-39.719479	45.000000	-45.000000	5502.391870	-3326.028442	131.908573	-113.563508	1429.030520	38.853609	15.081964	-18.813528	
3.5400	29.461448	26.135164	38.710204	2.716193	841.855302	-46.959783	-1.222850	40.192729	43.111617	45.000000	19.546641	1672.909489	-464.568051	141.844648	-180.000000	1785.298752	59.706656	24.044632	17.562412	-8.896848	-45.000000	-39.632170	45.000000	-45.000000	5502.210566	-3326.058356	131.868687	-113.194083	1428.984747	38.845479	15.105652	-18.575817	
3.5500	29.440714	26.279682	38.892475	5.146235	840.484623	-46.796048	-1.267933	40.258687	43.226283	45.000000	19.456228	1672.724052	-464.828616	141.798507	-180.000000	1785.362851	59.684175	23.874082	17.575279	-9.062854	-45.000000	-39.542415	45.000000	-45.000000	5502.029603	-3326.096764	131.834692	-112.842987	1428.939858	38.864171	15.116829	-18.341119	
3.5600	29.420711	26.427030	39.079791	7.584071	839.064841	-46.620903	-1.310194	40.332239	43.339364	45.000000	19.349668	1672.533010	-465.093540	141.753205	-180.000000	1785.426021	59.660605	23.686894	17.576985	-9.244552	-45.000000	-39.449943	45.000000	-45.000000	5501.847130	-3326.143240	131.806588	-112.508754	1428.894903	38.907862	15.116323	-18.110288	
3.5700	29.400066	26.575306	39.275231	10.029247	837.594283	-46.437572	-1.357280	40.411531	43.446747	45.000000	19.228375	1672.340938	-465.367481	141.708511	-180.000000	1785.484943	59.637504	23.487683	17.571961	-9.428935	-45.000000	-39.355140	45.000000	-45.000000	5501.668569	-3326.203091	131.785442	-112.207960	1428.852265	38.973778	15.105526	-17.886443	
3.5800	29.374539	26.727921	39.480836	12.481036	836.070744	-46.251053	-1.415364	40.494739	43.545346	45.000000	19.097227	1672.147773	-465.646292	141.665473	-180.000000	1785.541041	59.614666	23.277632	17.560560	-9.611695	-45.000000	-39.258792	45.000000	-45.000000	5501.494321	-3326.276039	131.770282	-111.948125	1428.814584	39.060093	15.086776	-17.672970	
3.5900	29.339876	26.887267	39.701258	14.938836	834.492649	-46.066701	-1.488347	40.582259	43.631813	45.000000	18.953826	1671.958073	-465.929338	141.626389	-180.000000	1785.592209	59.594153	23.056121	17.542300	-9.787745	-45.000000	-39.163840	45.000000	-45.000000	5501.327820	-3326.365159	131.762688	-111.740515	1428.785321	39.163606	15.061363	-17.472035	
3.6000	29.294069	27.052927	39.937278	17.402203	832.859593	-45.889392	-1.580784	40.672067	43.706061	45.000000	18.804552	1671.769541	-466.214807	141.592349	-180.000000	1785.640180	59.576811	22.825017	17.516873	-9.953820	-45.000000	-39.070893	45.000000	-45.000000	5501.169614	-3326.469900	131.762022	-111.591962	1428.764508	39.281962	15.031969	-17.285277	
3.6100	29.226246	27.235069	40.202744	19.871591	831.173182	-45.721975	-1.722141	40.766119	43.753381	45.000000	18.646650	1671.596023	-466.497157	141.571131	-180.000000	1785.685155	59.565649	22.584145	17.480508	-10.081790	-45.000000	-38.994118	45.000000	-45.000000	5501.032116	-3326.599108	131.767947	-111.527414	1428.756284	39.409852	14.999880	-17.113604	
3.6200	29.138629	27.430540	40.495405	22.347268	829.436717	-45.565675	-1.890842	40.864102	43.782791	45.000000	18.479401	1671.426716	-466.776445	141.556932	-180.000000	1785.726925	59.563037	22.329617	17.429538	-10.193531	-45.000000	-38.925225	45.000000	-45.000000	5500.907538	-3326.747256	131.782502	-111.535291	1428.759578	39.543536	14.965232	-16.954948	
3.6300	29.035441	27.637357	40.810821	24.828996	827.654478	-45.420415	-2.078326	40.966390	43.797384	45.000000	18.297768	1671.262595	-467.051577	141.547679	-180.000000	1785.762645	59.570757	22.063857	17.365908	-10.293742	-45.000000	-38.861205	45.000000	-45.000000	5500.792726	-3326.913819	131.804791	-111.609697	1428.773965	39.679284	14.927597	-16.807777	
